<?xml version="1.0" encoding="UTF-8" standalone="no"?>
<!DOCTYPE svg PUBLIC "-//W3C//DTD SVG 1.1//EN"
 "http://www.w3.org/Graphics/SVG/1.1/DTD/svg11.dtd">
<!-- Generated by graphviz version 2.38.0 (20140413.2041)
 -->
<!-- Title: __construct Pages: 1 -->
<svg width="239pt" height="28pt"
 viewBox="0.00 0.00 239.00 28.00" xmlns="http://www.w3.org/2000/svg" xmlns:xlink="http://www.w3.org/1999/xlink">
<g id="graph0" class="graph" transform="scale(1 1) rotate(0) translate(4 24)">
<title>__construct</title>
<polygon fill="white" stroke="none" points="-4,4 -4,-24 235,-24 235,4 -4,4"/>
<!-- Node0 -->
<g id="node1" class="node"><title>Node0</title>
<polygon fill="#bfbfbf" stroke="black" points="0,-0.5 0,-19.5 67,-19.5 67,-0.5 0,-0.5"/>
<text text-anchor="middle" x="33.5" y="-7.5" font-family="Helvetica,sans-Serif" font-size="10.00">__construct</text>
</g>
<!-- Node1 -->
<g id="node2" class="node"><title>Node1</title>
<g id="a_node2"><a xlink:href="../../d5/d0a/classParticipant.html#a4dcaa8f72c8423d4de25a9e87fa6f3e4" target="_top" xlink:title="load">
<polygon fill="white" stroke="black" points="103,-0.5 103,-19.5 140,-19.5 140,-0.5 103,-0.5"/>
<text text-anchor="middle" x="121.5" y="-7.5" font-family="Helvetica,sans-Serif" font-size="10.00">load</text>
</a>
</g>
</g>
<!-- Node0&#45;&gt;Node1 -->
<g id="edge1" class="edge"><title>Node0&#45;&gt;Node1</title>
<path fill="none" stroke="midnightblue" d="M67.0129,-10C75.4796,-10 84.524,-10 92.7211,-10"/>
<polygon fill="midnightblue" stroke="midnightblue" points="92.8891,-13.5001 102.889,-10 92.8891,-6.5001 92.8891,-13.5001"/>
</g>
<!-- Node2 -->
<g id="node3" class="node"><title>Node2</title>
<g id="a_node3"><a xlink:href="../../d5/d0a/classParticipant.html#a5ef76eef42d2624386442eeb636d338c" target="_top" xlink:title="setEmail">
<polygon fill="white" stroke="black" points="176,-0.5 176,-19.5 231,-19.5 231,-0.5 176,-0.5"/>
<text text-anchor="middle" x="203.5" y="-7.5" font-family="Helvetica,sans-Serif" font-size="10.00">setEmail</text>
</a>
</g>
</g>
<!-- Node1&#45;&gt;Node2 -->
<g id="edge2" class="edge"><title>Node1&#45;&gt;Node2</title>
<path fill="none" stroke="midnightblue" d="M140.255,-10C147.798,-10 156.889,-10 165.765,-10"/>
<polygon fill="midnightblue" stroke="midnightblue" points="165.979,-13.5001 175.979,-10 165.979,-6.5001 165.979,-13.5001"/>
</g>
</g>
</svg>
