<?xml version="1.0" encoding="UTF-8" standalone="no"?>
<!DOCTYPE svg PUBLIC "-//W3C//DTD SVG 1.1//EN"
 "http://www.w3.org/Graphics/SVG/1.1/DTD/svg11.dtd">
<!-- Generated by graphviz version 2.38.0 (20140413.2041)
 -->
<!-- Title: setParticipant Pages: 1 -->
<svg width="261pt" height="28pt"
 viewBox="0.00 0.00 261.00 28.00" xmlns="http://www.w3.org/2000/svg" xmlns:xlink="http://www.w3.org/1999/xlink">
<g id="graph0" class="graph" transform="scale(1 1) rotate(0) translate(4 24)">
<title>setParticipant</title>
<polygon fill="white" stroke="none" points="-4,4 -4,-24 257,-24 257,4 -4,4"/>
<!-- Node45 -->
<g id="node1" class="node"><title>Node45</title>
<polygon fill="#bfbfbf" stroke="black" points="0,-0.5 0,-19.5 77,-19.5 77,-0.5 0,-0.5"/>
<text text-anchor="middle" x="38.5" y="-7.5" font-family="Helvetica,sans-Serif" font-size="10.00">setParticipant</text>
</g>
<!-- Node46 -->
<g id="node2" class="node"><title>Node46</title>
<g id="a_node2"><a xlink:href="../../db/d42/classParticipation.html#a4dcaa8f72c8423d4de25a9e87fa6f3e4" target="_top" xlink:title="load">
<polygon fill="white" stroke="black" points="113,-0.5 113,-19.5 150,-19.5 150,-0.5 113,-0.5"/>
<text text-anchor="middle" x="131.5" y="-7.5" font-family="Helvetica,sans-Serif" font-size="10.00">load</text>
</a>
</g>
</g>
<!-- Node45&#45;&gt;Node46 -->
<g id="edge1" class="edge"><title>Node45&#45;&gt;Node46</title>
<path fill="none" stroke="midnightblue" d="M87.2628,-10C96.3417,-10 105.3,-10 112.687,-10"/>
<polygon fill="midnightblue" stroke="midnightblue" points="87.0386,-6.5001 77.0386,-10 87.0385,-13.5001 87.0386,-6.5001"/>
</g>
<!-- Node47 -->
<g id="node3" class="node"><title>Node47</title>
<g id="a_node3"><a xlink:href="../../db/d42/classParticipation.html#a243272172685049c12f7df66416c3d5c" target="_top" xlink:title="__construct">
<polygon fill="white" stroke="black" points="186,-0.5 186,-19.5 253,-19.5 253,-0.5 186,-0.5"/>
<text text-anchor="middle" x="219.5" y="-7.5" font-family="Helvetica,sans-Serif" font-size="10.00">__construct</text>
</a>
</g>
</g>
<!-- Node46&#45;&gt;Node47 -->
<g id="edge2" class="edge"><title>Node46&#45;&gt;Node47</title>
<path fill="none" stroke="midnightblue" d="M160.376,-10C168.473,-10 177.39,-10 185.757,-10"/>
<polygon fill="midnightblue" stroke="midnightblue" points="160.319,-6.5001 150.319,-10 160.319,-13.5001 160.319,-6.5001"/>
</g>
</g>
</svg>
