<?xml version="1.0" encoding="UTF-8" standalone="no"?>
<!DOCTYPE svg PUBLIC "-//W3C//DTD SVG 1.1//EN"
 "http://www.w3.org/Graphics/SVG/1.1/DTD/svg11.dtd">
<!-- Generated by graphviz version 2.38.0 (20140413.2041)
 -->
<!-- Title: setRaffle Pages: 1 -->
<svg width="240pt" height="28pt"
 viewBox="0.00 0.00 240.00 28.00" xmlns="http://www.w3.org/2000/svg" xmlns:xlink="http://www.w3.org/1999/xlink">
<g id="graph0" class="graph" transform="scale(1 1) rotate(0) translate(4 24)">
<title>setRaffle</title>
<polygon fill="white" stroke="none" points="-4,4 -4,-24 236,-24 236,4 -4,4"/>
<!-- Node49 -->
<g id="node1" class="node"><title>Node49</title>
<polygon fill="#bfbfbf" stroke="black" points="0,-0.5 0,-19.5 56,-19.5 56,-0.5 0,-0.5"/>
<text text-anchor="middle" x="28" y="-7.5" font-family="Helvetica,sans-Serif" font-size="10.00">setRaffle</text>
</g>
<!-- Node50 -->
<g id="node2" class="node"><title>Node50</title>
<g id="a_node2"><a xlink:href="../../db/d42/classParticipation.html#a4dcaa8f72c8423d4de25a9e87fa6f3e4" target="_top" xlink:title="load">
<polygon fill="white" stroke="black" points="92,-0.5 92,-19.5 129,-19.5 129,-0.5 92,-0.5"/>
<text text-anchor="middle" x="110.5" y="-7.5" font-family="Helvetica,sans-Serif" font-size="10.00">load</text>
</a>
</g>
</g>
<!-- Node49&#45;&gt;Node50 -->
<g id="edge1" class="edge"><title>Node49&#45;&gt;Node50</title>
<path fill="none" stroke="midnightblue" d="M66.3926,-10C75.1873,-10 84.1649,-10 91.6344,-10"/>
<polygon fill="midnightblue" stroke="midnightblue" points="66.2537,-6.5001 56.2536,-10 66.2536,-13.5001 66.2537,-6.5001"/>
</g>
<!-- Node51 -->
<g id="node3" class="node"><title>Node51</title>
<g id="a_node3"><a xlink:href="../../db/d42/classParticipation.html#a243272172685049c12f7df66416c3d5c" target="_top" xlink:title="__construct">
<polygon fill="white" stroke="black" points="165,-0.5 165,-19.5 232,-19.5 232,-0.5 165,-0.5"/>
<text text-anchor="middle" x="198.5" y="-7.5" font-family="Helvetica,sans-Serif" font-size="10.00">__construct</text>
</a>
</g>
</g>
<!-- Node50&#45;&gt;Node51 -->
<g id="edge2" class="edge"><title>Node50&#45;&gt;Node51</title>
<path fill="none" stroke="midnightblue" d="M139.376,-10C147.473,-10 156.39,-10 164.757,-10"/>
<polygon fill="midnightblue" stroke="midnightblue" points="139.319,-6.5001 129.319,-10 139.319,-13.5001 139.319,-6.5001"/>
</g>
</g>
</svg>
