<?xml version="1.0" encoding="UTF-8" standalone="no"?>
<!DOCTYPE svg PUBLIC "-//W3C//DTD SVG 1.1//EN"
 "http://www.w3.org/Graphics/SVG/1.1/DTD/svg11.dtd">
<!-- Generated by graphviz version 2.38.0 (20140413.2041)
 -->
<!-- Title: __construct Pages: 1 -->
<svg width="315pt" height="256pt"
 viewBox="0.00 0.00 315.00 256.00" xmlns="http://www.w3.org/2000/svg" xmlns:xlink="http://www.w3.org/1999/xlink">
<g id="graph0" class="graph" transform="scale(1 1) rotate(0) translate(4 252)">
<title>__construct</title>
<polygon fill="white" stroke="none" points="-4,4 -4,-252 311,-252 311,4 -4,4"/>
<!-- Node0 -->
<g id="node1" class="node"><title>Node0</title>
<polygon fill="#bfbfbf" stroke="black" points="0,-114.5 0,-133.5 67,-133.5 67,-114.5 0,-114.5"/>
<text text-anchor="middle" x="33.5" y="-121.5" font-family="Helvetica,sans-Serif" font-size="10.00">__construct</text>
</g>
<!-- Node1 -->
<g id="node2" class="node"><title>Node1</title>
<g id="a_node2"><a xlink:href="../../db/d42/classParticipation.html#a4dcaa8f72c8423d4de25a9e87fa6f3e4" target="_top" xlink:title="load">
<polygon fill="white" stroke="black" points="103,-114.5 103,-133.5 140,-133.5 140,-114.5 103,-114.5"/>
<text text-anchor="middle" x="121.5" y="-121.5" font-family="Helvetica,sans-Serif" font-size="10.00">load</text>
</a>
</g>
</g>
<!-- Node0&#45;&gt;Node1 -->
<g id="edge1" class="edge"><title>Node0&#45;&gt;Node1</title>
<path fill="none" stroke="midnightblue" d="M67.0129,-124C75.4796,-124 84.524,-124 92.7211,-124"/>
<polygon fill="midnightblue" stroke="midnightblue" points="92.8891,-127.5 102.889,-124 92.8891,-120.5 92.8891,-127.5"/>
</g>
<!-- Node2 -->
<g id="node3" class="node"><title>Node2</title>
<g id="a_node3"><a xlink:href="../../db/d42/classParticipation.html#a2fba7205d3668ea14af65935321f8624" target="_top" xlink:title="setRaffle">
<polygon fill="white" stroke="black" points="213.5,-228.5 213.5,-247.5 269.5,-247.5 269.5,-228.5 213.5,-228.5"/>
<text text-anchor="middle" x="241.5" y="-235.5" font-family="Helvetica,sans-Serif" font-size="10.00">setRaffle</text>
</a>
</g>
</g>
<!-- Node1&#45;&gt;Node2 -->
<g id="edge2" class="edge"><title>Node1&#45;&gt;Node2</title>
<path fill="none" stroke="midnightblue" d="M125.246,-133.696C131.195,-152.926 147.119,-196.016 176,-219 183.864,-225.258 193.734,-229.456 203.37,-232.272"/>
<polygon fill="midnightblue" stroke="midnightblue" points="202.685,-235.708 213.235,-234.734 204.38,-228.916 202.685,-235.708"/>
</g>
<!-- Node3 -->
<g id="node4" class="node"><title>Node3</title>
<g id="a_node4"><a xlink:href="../../db/d42/classParticipation.html#a7fc05128dde33342f6d4c257a692918c" target="_top" xlink:title="setParticipant">
<polygon fill="white" stroke="black" points="203,-190.5 203,-209.5 280,-209.5 280,-190.5 203,-190.5"/>
<text text-anchor="middle" x="241.5" y="-197.5" font-family="Helvetica,sans-Serif" font-size="10.00">setParticipant</text>
</a>
</g>
</g>
<!-- Node1&#45;&gt;Node3 -->
<g id="edge3" class="edge"><title>Node1&#45;&gt;Node3</title>
<path fill="none" stroke="midnightblue" d="M128.949,-133.552C137.999,-146.233 155.658,-168.479 176,-181 181.35,-184.293 187.3,-187.041 193.363,-189.328"/>
<polygon fill="midnightblue" stroke="midnightblue" points="192.317,-192.669 202.912,-192.554 194.558,-186.037 192.317,-192.669"/>
</g>
<!-- Node4 -->
<g id="node5" class="node"><title>Node4</title>
<g id="a_node5"><a xlink:href="../../db/d42/classParticipation.html#a94042b70768a686decc42594ef36bbd6" target="_top" xlink:title="setState">
<polygon fill="white" stroke="black" points="215,-152.5 215,-171.5 268,-171.5 268,-152.5 215,-152.5"/>
<text text-anchor="middle" x="241.5" y="-159.5" font-family="Helvetica,sans-Serif" font-size="10.00">setState</text>
</a>
</g>
</g>
<!-- Node1&#45;&gt;Node4 -->
<g id="edge4" class="edge"><title>Node1&#45;&gt;Node4</title>
<path fill="none" stroke="midnightblue" d="M140.25,-130.579C150.625,-134.355 164,-139.105 176,-143 185.477,-146.076 195.804,-149.213 205.362,-152.028"/>
<polygon fill="midnightblue" stroke="midnightblue" points="204.395,-155.392 214.975,-154.83 206.353,-148.672 204.395,-155.392"/>
</g>
<!-- Node5 -->
<g id="node6" class="node"><title>Node5</title>
<g id="a_node6"><a xlink:href="../../db/d42/classParticipation.html#ada5ae8da0a9b9edc7c66cc052ba4f2ae" target="_top" xlink:title="setResultingParticipations">
<polygon fill="white" stroke="black" points="176,-114.5 176,-133.5 307,-133.5 307,-114.5 176,-114.5"/>
<text text-anchor="middle" x="241.5" y="-121.5" font-family="Helvetica,sans-Serif" font-size="10.00">setResultingParticipations</text>
</a>
</g>
</g>
<!-- Node1&#45;&gt;Node5 -->
<g id="edge5" class="edge"><title>Node1&#45;&gt;Node5</title>
<path fill="none" stroke="midnightblue" d="M140.166,-124C147.419,-124 156.347,-124 165.859,-124"/>
<polygon fill="midnightblue" stroke="midnightblue" points="165.938,-127.5 175.938,-124 165.938,-120.5 165.938,-127.5"/>
</g>
<!-- Node6 -->
<g id="node7" class="node"><title>Node6</title>
<g id="a_node7"><a xlink:href="../../db/d42/classParticipation.html#a5e1bd24bcf32db4180cea6ee96a5d8e9" target="_top" xlink:title="setResultingWins">
<polygon fill="white" stroke="black" points="194.5,-76.5 194.5,-95.5 288.5,-95.5 288.5,-76.5 194.5,-76.5"/>
<text text-anchor="middle" x="241.5" y="-83.5" font-family="Helvetica,sans-Serif" font-size="10.00">setResultingWins</text>
</a>
</g>
</g>
<!-- Node1&#45;&gt;Node6 -->
<g id="edge6" class="edge"><title>Node1&#45;&gt;Node6</title>
<path fill="none" stroke="midnightblue" d="M140.25,-117.421C150.625,-113.645 164,-108.895 176,-105 182.714,-102.821 189.855,-100.611 196.847,-98.5065"/>
<polygon fill="midnightblue" stroke="midnightblue" points="198.327,-101.718 206.916,-95.5146 196.333,-95.0078 198.327,-101.718"/>
</g>
<!-- Node7 -->
<g id="node8" class="node"><title>Node7</title>
<g id="a_node8"><a xlink:href="../../db/d42/classParticipation.html#a625f620ed4323ba2e5c688c2daee905c" target="_top" xlink:title="setResultingRandom">
<polygon fill="white" stroke="black" points="186.5,-38.5 186.5,-57.5 296.5,-57.5 296.5,-38.5 186.5,-38.5"/>
<text text-anchor="middle" x="241.5" y="-45.5" font-family="Helvetica,sans-Serif" font-size="10.00">setResultingRandom</text>
</a>
</g>
</g>
<!-- Node1&#45;&gt;Node7 -->
<g id="edge7" class="edge"><title>Node1&#45;&gt;Node7</title>
<path fill="none" stroke="midnightblue" d="M128.949,-114.448C137.999,-101.767 155.658,-79.5212 176,-67 179.425,-64.8917 183.097,-63.0068 186.886,-61.3233"/>
<polygon fill="midnightblue" stroke="midnightblue" points="188.457,-64.466 196.475,-57.5409 185.889,-57.9543 188.457,-64.466"/>
</g>
<!-- Node8 -->
<g id="node9" class="node"><title>Node8</title>
<g id="a_node9"><a xlink:href="../../db/d42/classParticipation.html#a6825c579ea9e46a394ab2d6890fae8bf" target="_top" xlink:title="setResultingScore">
<polygon fill="white" stroke="black" points="192.5,-0.5 192.5,-19.5 290.5,-19.5 290.5,-0.5 192.5,-0.5"/>
<text text-anchor="middle" x="241.5" y="-7.5" font-family="Helvetica,sans-Serif" font-size="10.00">setResultingScore</text>
</a>
</g>
</g>
<!-- Node1&#45;&gt;Node8 -->
<g id="edge8" class="edge"><title>Node1&#45;&gt;Node8</title>
<path fill="none" stroke="midnightblue" d="M125.246,-114.304C131.195,-95.0739 147.119,-51.9843 176,-29 178.269,-27.1941 180.706,-25.5597 183.255,-24.0806"/>
<polygon fill="midnightblue" stroke="midnightblue" points="184.863,-27.1904 192.281,-19.6264 181.765,-20.9131 184.863,-27.1904"/>
</g>
</g>
</svg>
