<?xml version="1.0" encoding="UTF-8" standalone="no"?>
<!DOCTYPE svg PUBLIC "-//W3C//DTD SVG 1.1//EN"
 "http://www.w3.org/Graphics/SVG/1.1/DTD/svg11.dtd">
<!-- Generated by graphviz version 2.38.0 (20140413.2041)
 -->
<!-- Title: load Pages: 1 -->
<svg width="212pt" height="256pt"
 viewBox="0.00 0.00 212.00 256.00" xmlns="http://www.w3.org/2000/svg" xmlns:xlink="http://www.w3.org/1999/xlink">
<g id="graph0" class="graph" transform="scale(1 1) rotate(0) translate(4 252)">
<title>load</title>
<polygon fill="white" stroke="none" points="-4,4 -4,-252 208,-252 208,4 -4,4"/>
<!-- Node30 -->
<g id="node1" class="node"><title>Node30</title>
<polygon fill="#bfbfbf" stroke="black" points="0,-114.5 0,-133.5 37,-133.5 37,-114.5 0,-114.5"/>
<text text-anchor="middle" x="18.5" y="-121.5" font-family="Helvetica,sans-Serif" font-size="10.00">load</text>
</g>
<!-- Node31 -->
<g id="node2" class="node"><title>Node31</title>
<g id="a_node2"><a xlink:href="../../db/d42/classParticipation.html#a2fba7205d3668ea14af65935321f8624" target="_top" xlink:title="setRaffle">
<polygon fill="white" stroke="black" points="110.5,-228.5 110.5,-247.5 166.5,-247.5 166.5,-228.5 110.5,-228.5"/>
<text text-anchor="middle" x="138.5" y="-235.5" font-family="Helvetica,sans-Serif" font-size="10.00">setRaffle</text>
</a>
</g>
</g>
<!-- Node30&#45;&gt;Node31 -->
<g id="edge1" class="edge"><title>Node30&#45;&gt;Node31</title>
<path fill="none" stroke="midnightblue" d="M22.2458,-133.696C28.1948,-152.926 44.1188,-196.016 73,-219 80.8639,-225.258 90.7335,-229.456 100.37,-232.272"/>
<polygon fill="midnightblue" stroke="midnightblue" points="99.6848,-235.708 110.235,-234.734 101.38,-228.916 99.6848,-235.708"/>
</g>
<!-- Node32 -->
<g id="node3" class="node"><title>Node32</title>
<g id="a_node3"><a xlink:href="../../db/d42/classParticipation.html#a7fc05128dde33342f6d4c257a692918c" target="_top" xlink:title="setParticipant">
<polygon fill="white" stroke="black" points="100,-190.5 100,-209.5 177,-209.5 177,-190.5 100,-190.5"/>
<text text-anchor="middle" x="138.5" y="-197.5" font-family="Helvetica,sans-Serif" font-size="10.00">setParticipant</text>
</a>
</g>
</g>
<!-- Node30&#45;&gt;Node32 -->
<g id="edge2" class="edge"><title>Node30&#45;&gt;Node32</title>
<path fill="none" stroke="midnightblue" d="M25.9489,-133.552C34.9992,-146.233 52.6581,-168.479 73,-181 78.3497,-184.293 84.3003,-187.041 90.3628,-189.328"/>
<polygon fill="midnightblue" stroke="midnightblue" points="89.3173,-192.669 99.9115,-192.554 91.5578,-186.037 89.3173,-192.669"/>
</g>
<!-- Node33 -->
<g id="node4" class="node"><title>Node33</title>
<g id="a_node4"><a xlink:href="../../db/d42/classParticipation.html#a94042b70768a686decc42594ef36bbd6" target="_top" xlink:title="setState">
<polygon fill="white" stroke="black" points="112,-152.5 112,-171.5 165,-171.5 165,-152.5 112,-152.5"/>
<text text-anchor="middle" x="138.5" y="-159.5" font-family="Helvetica,sans-Serif" font-size="10.00">setState</text>
</a>
</g>
</g>
<!-- Node30&#45;&gt;Node33 -->
<g id="edge3" class="edge"><title>Node30&#45;&gt;Node33</title>
<path fill="none" stroke="midnightblue" d="M37.25,-130.579C47.6249,-134.355 60.9999,-139.105 73,-143 82.4769,-146.076 92.8043,-149.213 102.362,-152.028"/>
<polygon fill="midnightblue" stroke="midnightblue" points="101.395,-155.392 111.975,-154.83 103.353,-148.672 101.395,-155.392"/>
</g>
<!-- Node34 -->
<g id="node5" class="node"><title>Node34</title>
<g id="a_node5"><a xlink:href="../../db/d42/classParticipation.html#ada5ae8da0a9b9edc7c66cc052ba4f2ae" target="_top" xlink:title="setResultingParticipations">
<polygon fill="white" stroke="black" points="73,-114.5 73,-133.5 204,-133.5 204,-114.5 73,-114.5"/>
<text text-anchor="middle" x="138.5" y="-121.5" font-family="Helvetica,sans-Serif" font-size="10.00">setResultingParticipations</text>
</a>
</g>
</g>
<!-- Node30&#45;&gt;Node34 -->
<g id="edge4" class="edge"><title>Node30&#45;&gt;Node34</title>
<path fill="none" stroke="midnightblue" d="M37.1658,-124C44.4189,-124 53.3467,-124 62.8593,-124"/>
<polygon fill="midnightblue" stroke="midnightblue" points="62.9383,-127.5 72.9383,-124 62.9383,-120.5 62.9383,-127.5"/>
</g>
<!-- Node35 -->
<g id="node6" class="node"><title>Node35</title>
<g id="a_node6"><a xlink:href="../../db/d42/classParticipation.html#a5e1bd24bcf32db4180cea6ee96a5d8e9" target="_top" xlink:title="setResultingWins">
<polygon fill="white" stroke="black" points="91.5,-76.5 91.5,-95.5 185.5,-95.5 185.5,-76.5 91.5,-76.5"/>
<text text-anchor="middle" x="138.5" y="-83.5" font-family="Helvetica,sans-Serif" font-size="10.00">setResultingWins</text>
</a>
</g>
</g>
<!-- Node30&#45;&gt;Node35 -->
<g id="edge5" class="edge"><title>Node30&#45;&gt;Node35</title>
<path fill="none" stroke="midnightblue" d="M37.25,-117.421C47.6249,-113.645 60.9999,-108.895 73,-105 79.7141,-102.821 86.855,-100.611 93.8466,-98.5065"/>
<polygon fill="midnightblue" stroke="midnightblue" points="95.327,-101.718 103.916,-95.5146 93.3332,-95.0078 95.327,-101.718"/>
</g>
<!-- Node36 -->
<g id="node7" class="node"><title>Node36</title>
<g id="a_node7"><a xlink:href="../../db/d42/classParticipation.html#a625f620ed4323ba2e5c688c2daee905c" target="_top" xlink:title="setResultingRandom">
<polygon fill="white" stroke="black" points="83.5,-38.5 83.5,-57.5 193.5,-57.5 193.5,-38.5 83.5,-38.5"/>
<text text-anchor="middle" x="138.5" y="-45.5" font-family="Helvetica,sans-Serif" font-size="10.00">setResultingRandom</text>
</a>
</g>
</g>
<!-- Node30&#45;&gt;Node36 -->
<g id="edge6" class="edge"><title>Node30&#45;&gt;Node36</title>
<path fill="none" stroke="midnightblue" d="M25.9489,-114.448C34.9992,-101.767 52.6581,-79.5212 73,-67 76.4251,-64.8917 80.0965,-63.0068 83.8859,-61.3233"/>
<polygon fill="midnightblue" stroke="midnightblue" points="85.4571,-64.466 93.4754,-57.5409 82.8886,-57.9543 85.4571,-64.466"/>
</g>
<!-- Node37 -->
<g id="node8" class="node"><title>Node37</title>
<g id="a_node8"><a xlink:href="../../db/d42/classParticipation.html#a6825c579ea9e46a394ab2d6890fae8bf" target="_top" xlink:title="setResultingScore">
<polygon fill="white" stroke="black" points="89.5,-0.5 89.5,-19.5 187.5,-19.5 187.5,-0.5 89.5,-0.5"/>
<text text-anchor="middle" x="138.5" y="-7.5" font-family="Helvetica,sans-Serif" font-size="10.00">setResultingScore</text>
</a>
</g>
</g>
<!-- Node30&#45;&gt;Node37 -->
<g id="edge7" class="edge"><title>Node30&#45;&gt;Node37</title>
<path fill="none" stroke="midnightblue" d="M22.2458,-114.304C28.1948,-95.0739 44.1188,-51.9843 73,-29 75.2693,-27.1941 77.7055,-25.5597 80.255,-24.0806"/>
<polygon fill="midnightblue" stroke="midnightblue" points="81.8626,-27.1904 89.2813,-19.6264 78.7649,-20.9131 81.8626,-27.1904"/>
</g>
</g>
</svg>
