<?xml version="1.0" encoding="UTF-8" standalone="no"?>
<!DOCTYPE svg PUBLIC "-//W3C//DTD SVG 1.1//EN"
 "http://www.w3.org/Graphics/SVG/1.1/DTD/svg11.dtd">
<!-- Generated by graphviz version 2.38.0 (20140413.2041)
 -->
<!-- Title: __construct Pages: 1 -->
<svg width="261pt" height="104pt"
 viewBox="0.00 0.00 261.00 104.00" xmlns="http://www.w3.org/2000/svg" xmlns:xlink="http://www.w3.org/1999/xlink">
<g id="graph0" class="graph" transform="scale(1 1) rotate(0) translate(4 100)">
<title>__construct</title>
<polygon fill="white" stroke="none" points="-4,4 -4,-100 257,-100 257,4 -4,4"/>
<!-- Node0 -->
<g id="node1" class="node"><title>Node0</title>
<polygon fill="#bfbfbf" stroke="black" points="0,-38.5 0,-57.5 67,-57.5 67,-38.5 0,-38.5"/>
<text text-anchor="middle" x="33.5" y="-45.5" font-family="Helvetica,sans-Serif" font-size="10.00">__construct</text>
</g>
<!-- Node1 -->
<g id="node2" class="node"><title>Node1</title>
<g id="a_node2"><a xlink:href="../../db/d42/classParticipation.html#a4dcaa8f72c8423d4de25a9e87fa6f3e4" target="_top" xlink:title="load">
<polygon fill="white" stroke="black" points="103,-38.5 103,-57.5 140,-57.5 140,-38.5 103,-38.5"/>
<text text-anchor="middle" x="121.5" y="-45.5" font-family="Helvetica,sans-Serif" font-size="10.00">load</text>
</a>
</g>
</g>
<!-- Node0&#45;&gt;Node1 -->
<g id="edge1" class="edge"><title>Node0&#45;&gt;Node1</title>
<path fill="none" stroke="midnightblue" d="M67.0129,-48C75.4796,-48 84.524,-48 92.7211,-48"/>
<polygon fill="midnightblue" stroke="midnightblue" points="92.8891,-51.5001 102.889,-48 92.8891,-44.5001 92.8891,-51.5001"/>
</g>
<!-- Node2 -->
<g id="node3" class="node"><title>Node2</title>
<g id="a_node3"><a xlink:href="../../db/d42/classParticipation.html#a2fba7205d3668ea14af65935321f8624" target="_top" xlink:title="setRaffle">
<polygon fill="white" stroke="black" points="186.5,-76.5 186.5,-95.5 242.5,-95.5 242.5,-76.5 186.5,-76.5"/>
<text text-anchor="middle" x="214.5" y="-83.5" font-family="Helvetica,sans-Serif" font-size="10.00">setRaffle</text>
</a>
</g>
</g>
<!-- Node1&#45;&gt;Node2 -->
<g id="edge2" class="edge"><title>Node1&#45;&gt;Node2</title>
<path fill="none" stroke="midnightblue" d="M140.046,-55.3268C151.712,-60.1983 167.38,-66.7413 181.25,-72.5328"/>
<polygon fill="midnightblue" stroke="midnightblue" points="179.916,-75.7689 190.493,-76.3926 182.614,-69.3094 179.916,-75.7689"/>
</g>
<!-- Node3 -->
<g id="node4" class="node"><title>Node3</title>
<g id="a_node4"><a xlink:href="../../db/d42/classParticipation.html#a7fc05128dde33342f6d4c257a692918c" target="_top" xlink:title="setParticipant">
<polygon fill="white" stroke="black" points="176,-38.5 176,-57.5 253,-57.5 253,-38.5 176,-38.5"/>
<text text-anchor="middle" x="214.5" y="-45.5" font-family="Helvetica,sans-Serif" font-size="10.00">setParticipant</text>
</a>
</g>
</g>
<!-- Node1&#45;&gt;Node3 -->
<g id="edge3" class="edge"><title>Node1&#45;&gt;Node3</title>
<path fill="none" stroke="midnightblue" d="M140.046,-48C147.401,-48 156.347,-48 165.43,-48"/>
<polygon fill="midnightblue" stroke="midnightblue" points="165.666,-51.5001 175.665,-48 165.665,-44.5001 165.666,-51.5001"/>
</g>
<!-- Node4 -->
<g id="node5" class="node"><title>Node4</title>
<g id="a_node5"><a xlink:href="../../db/d42/classParticipation.html#a94042b70768a686decc42594ef36bbd6" target="_top" xlink:title="setState">
<polygon fill="white" stroke="black" points="188,-0.5 188,-19.5 241,-19.5 241,-0.5 188,-0.5"/>
<text text-anchor="middle" x="214.5" y="-7.5" font-family="Helvetica,sans-Serif" font-size="10.00">setState</text>
</a>
</g>
</g>
<!-- Node1&#45;&gt;Node4 -->
<g id="edge4" class="edge"><title>Node1&#45;&gt;Node4</title>
<path fill="none" stroke="midnightblue" d="M140.046,-40.6732C151.712,-35.8017 167.38,-29.2587 181.25,-23.4672"/>
<polygon fill="midnightblue" stroke="midnightblue" points="182.614,-26.6906 190.493,-19.6074 179.916,-20.2311 182.614,-26.6906"/>
</g>
</g>
</svg>
