<?xml version="1.0" encoding="UTF-8" standalone="no"?>
<!DOCTYPE svg PUBLIC "-//W3C//DTD SVG 1.1//EN"
 "http://www.w3.org/Graphics/SVG/1.1/DTD/svg11.dtd">
<!-- Generated by graphviz version 2.38.0 (20140413.2041)
 -->
<!-- Title: load Pages: 1 -->
<svg width="158pt" height="104pt"
 viewBox="0.00 0.00 158.00 104.00" xmlns="http://www.w3.org/2000/svg" xmlns:xlink="http://www.w3.org/1999/xlink">
<g id="graph0" class="graph" transform="scale(1 1) rotate(0) translate(4 100)">
<title>load</title>
<polygon fill="white" stroke="none" points="-4,4 -4,-100 154,-100 154,4 -4,4"/>
<!-- Node26 -->
<g id="node1" class="node"><title>Node26</title>
<polygon fill="#bfbfbf" stroke="black" points="0,-38.5 0,-57.5 37,-57.5 37,-38.5 0,-38.5"/>
<text text-anchor="middle" x="18.5" y="-45.5" font-family="Helvetica,sans-Serif" font-size="10.00">load</text>
</g>
<!-- Node27 -->
<g id="node2" class="node"><title>Node27</title>
<g id="a_node2"><a xlink:href="../../db/d42/classParticipation.html#a2fba7205d3668ea14af65935321f8624" target="_top" xlink:title="setRaffle">
<polygon fill="white" stroke="black" points="83.5,-76.5 83.5,-95.5 139.5,-95.5 139.5,-76.5 83.5,-76.5"/>
<text text-anchor="middle" x="111.5" y="-83.5" font-family="Helvetica,sans-Serif" font-size="10.00">setRaffle</text>
</a>
</g>
</g>
<!-- Node26&#45;&gt;Node27 -->
<g id="edge1" class="edge"><title>Node26&#45;&gt;Node27</title>
<path fill="none" stroke="midnightblue" d="M37.0457,-55.3268C48.7116,-60.1983 64.3804,-66.7413 78.2497,-72.5328"/>
<polygon fill="midnightblue" stroke="midnightblue" points="76.9163,-75.7689 87.4928,-76.3926 79.6137,-69.3094 76.9163,-75.7689"/>
</g>
<!-- Node28 -->
<g id="node3" class="node"><title>Node28</title>
<g id="a_node3"><a xlink:href="../../db/d42/classParticipation.html#a7fc05128dde33342f6d4c257a692918c" target="_top" xlink:title="setParticipant">
<polygon fill="white" stroke="black" points="73,-38.5 73,-57.5 150,-57.5 150,-38.5 73,-38.5"/>
<text text-anchor="middle" x="111.5" y="-45.5" font-family="Helvetica,sans-Serif" font-size="10.00">setParticipant</text>
</a>
</g>
</g>
<!-- Node26&#45;&gt;Node28 -->
<g id="edge2" class="edge"><title>Node26&#45;&gt;Node28</title>
<path fill="none" stroke="midnightblue" d="M37.0457,-48C44.4006,-48 53.3467,-48 62.4297,-48"/>
<polygon fill="midnightblue" stroke="midnightblue" points="62.6655,-51.5001 72.6655,-48 62.6654,-44.5001 62.6655,-51.5001"/>
</g>
<!-- Node29 -->
<g id="node4" class="node"><title>Node29</title>
<g id="a_node4"><a xlink:href="../../db/d42/classParticipation.html#a94042b70768a686decc42594ef36bbd6" target="_top" xlink:title="setState">
<polygon fill="white" stroke="black" points="85,-0.5 85,-19.5 138,-19.5 138,-0.5 85,-0.5"/>
<text text-anchor="middle" x="111.5" y="-7.5" font-family="Helvetica,sans-Serif" font-size="10.00">setState</text>
</a>
</g>
</g>
<!-- Node26&#45;&gt;Node29 -->
<g id="edge3" class="edge"><title>Node26&#45;&gt;Node29</title>
<path fill="none" stroke="midnightblue" d="M37.0457,-40.6732C48.7116,-35.8017 64.3804,-29.2587 78.2497,-23.4672"/>
<polygon fill="midnightblue" stroke="midnightblue" points="79.6137,-26.6906 87.4928,-19.6074 76.9163,-20.2311 79.6137,-26.6906"/>
</g>
</g>
</svg>
