<?xml version="1.0" encoding="UTF-8" standalone="no"?>
<!DOCTYPE svg PUBLIC "-//W3C//DTD SVG 1.1//EN"
 "http://www.w3.org/Graphics/SVG/1.1/DTD/svg11.dtd">
<!-- Generated by graphviz version 2.38.0 (20140413.2041)
 -->
<!-- Title: setResultingParticipations Pages: 1 -->
<svg width="315pt" height="28pt"
 viewBox="0.00 0.00 315.00 28.00" xmlns="http://www.w3.org/2000/svg" xmlns:xlink="http://www.w3.org/1999/xlink">
<g id="graph0" class="graph" transform="scale(1 1) rotate(0) translate(4 24)">
<title>setResultingParticipations</title>
<polygon fill="white" stroke="none" points="-4,4 -4,-24 311,-24 311,4 -4,4"/>
<!-- Node53 -->
<g id="node1" class="node"><title>Node53</title>
<polygon fill="#bfbfbf" stroke="black" points="0,-0.5 0,-19.5 131,-19.5 131,-0.5 0,-0.5"/>
<text text-anchor="middle" x="65.5" y="-7.5" font-family="Helvetica,sans-Serif" font-size="10.00">setResultingParticipations</text>
</g>
<!-- Node54 -->
<g id="node2" class="node"><title>Node54</title>
<g id="a_node2"><a xlink:href="../../db/d42/classParticipation.html#a4dcaa8f72c8423d4de25a9e87fa6f3e4" target="_top" xlink:title="load">
<polygon fill="white" stroke="black" points="167,-0.5 167,-19.5 204,-19.5 204,-0.5 167,-0.5"/>
<text text-anchor="middle" x="185.5" y="-7.5" font-family="Helvetica,sans-Serif" font-size="10.00">load</text>
</a>
</g>
</g>
<!-- Node53&#45;&gt;Node54 -->
<g id="edge1" class="edge"><title>Node53&#45;&gt;Node54</title>
<path fill="none" stroke="midnightblue" d="M141.06,-10C150.533,-10 159.43,-10 166.674,-10"/>
<polygon fill="midnightblue" stroke="midnightblue" points="141.024,-6.5001 131.024,-10 141.024,-13.5001 141.024,-6.5001"/>
</g>
<!-- Node55 -->
<g id="node3" class="node"><title>Node55</title>
<g id="a_node3"><a xlink:href="../../db/d42/classParticipation.html#a243272172685049c12f7df66416c3d5c" target="_top" xlink:title="__construct">
<polygon fill="white" stroke="black" points="240,-0.5 240,-19.5 307,-19.5 307,-0.5 240,-0.5"/>
<text text-anchor="middle" x="273.5" y="-7.5" font-family="Helvetica,sans-Serif" font-size="10.00">__construct</text>
</a>
</g>
</g>
<!-- Node54&#45;&gt;Node55 -->
<g id="edge2" class="edge"><title>Node54&#45;&gt;Node55</title>
<path fill="none" stroke="midnightblue" d="M214.376,-10C222.473,-10 231.39,-10 239.757,-10"/>
<polygon fill="midnightblue" stroke="midnightblue" points="214.319,-6.5001 204.319,-10 214.319,-13.5001 214.319,-6.5001"/>
</g>
</g>
</svg>
