<?xml version="1.0" encoding="UTF-8" standalone="no"?>
<!DOCTYPE svg PUBLIC "-//W3C//DTD SVG 1.1//EN"
 "http://www.w3.org/Graphics/SVG/1.1/DTD/svg11.dtd">
<!-- Generated by graphviz version 2.38.0 (20140413.2041)
 -->
<!-- Title: setOpenTime Pages: 1 -->
<svg width="262pt" height="28pt"
 viewBox="0.00 0.00 262.00 28.00" xmlns="http://www.w3.org/2000/svg" xmlns:xlink="http://www.w3.org/1999/xlink">
<g id="graph0" class="graph" transform="scale(1 1) rotate(0) translate(4 24)">
<title>setOpenTime</title>
<polygon fill="white" stroke="none" points="-4,4 -4,-24 258,-24 258,4 -4,4"/>
<!-- Node53 -->
<g id="node1" class="node"><title>Node53</title>
<polygon fill="#bfbfbf" stroke="black" points="0,-0.5 0,-19.5 78,-19.5 78,-0.5 0,-0.5"/>
<text text-anchor="middle" x="39" y="-7.5" font-family="Helvetica,sans-Serif" font-size="10.00">setOpenTime</text>
</g>
<!-- Node54 -->
<g id="node2" class="node"><title>Node54</title>
<g id="a_node2"><a xlink:href="../../d6/daf/classRaffle.html#a4dcaa8f72c8423d4de25a9e87fa6f3e4" target="_top" xlink:title="load">
<polygon fill="white" stroke="black" points="114,-0.5 114,-19.5 151,-19.5 151,-0.5 114,-0.5"/>
<text text-anchor="middle" x="132.5" y="-7.5" font-family="Helvetica,sans-Serif" font-size="10.00">load</text>
</a>
</g>
</g>
<!-- Node53&#45;&gt;Node54 -->
<g id="edge1" class="edge"><title>Node53&#45;&gt;Node54</title>
<path fill="none" stroke="midnightblue" d="M88.2569,-10C97.3516,-10 106.314,-10 113.7,-10"/>
<polygon fill="midnightblue" stroke="midnightblue" points="88.0094,-6.5001 78.0093,-10 88.0093,-13.5001 88.0094,-6.5001"/>
</g>
<!-- Node55 -->
<g id="node3" class="node"><title>Node55</title>
<g id="a_node3"><a xlink:href="../../d6/daf/classRaffle.html#a76d2164e5b087d6753a03c2bbb70ac55" target="_top" xlink:title="__construct">
<polygon fill="white" stroke="black" points="187,-0.5 187,-19.5 254,-19.5 254,-0.5 187,-0.5"/>
<text text-anchor="middle" x="220.5" y="-7.5" font-family="Helvetica,sans-Serif" font-size="10.00">__construct</text>
</a>
</g>
</g>
<!-- Node54&#45;&gt;Node55 -->
<g id="edge2" class="edge"><title>Node54&#45;&gt;Node55</title>
<path fill="none" stroke="midnightblue" d="M161.376,-10C169.473,-10 178.39,-10 186.757,-10"/>
<polygon fill="midnightblue" stroke="midnightblue" points="161.319,-6.5001 151.319,-10 161.319,-13.5001 161.319,-6.5001"/>
</g>
</g>
</svg>
