<?xml version="1.0" encoding="UTF-8" standalone="no"?>
<!DOCTYPE svg PUBLIC "-//W3C//DTD SVG 1.1//EN"
 "http://www.w3.org/Graphics/SVG/1.1/DTD/svg11.dtd">
<!-- Generated by graphviz version 2.38.0 (20140413.2041)
 -->
<!-- Title: setWinners Pages: 1 -->
<svg width="251pt" height="28pt"
 viewBox="0.00 0.00 251.00 28.00" xmlns="http://www.w3.org/2000/svg" xmlns:xlink="http://www.w3.org/1999/xlink">
<g id="graph0" class="graph" transform="scale(1 1) rotate(0) translate(4 24)">
<title>setWinners</title>
<polygon fill="white" stroke="none" points="-4,4 -4,-24 247,-24 247,4 -4,4"/>
<!-- Node61 -->
<g id="node1" class="node"><title>Node61</title>
<polygon fill="#bfbfbf" stroke="black" points="0,-0.5 0,-19.5 67,-19.5 67,-0.5 0,-0.5"/>
<text text-anchor="middle" x="33.5" y="-7.5" font-family="Helvetica,sans-Serif" font-size="10.00">setWinners</text>
</g>
<!-- Node62 -->
<g id="node2" class="node"><title>Node62</title>
<g id="a_node2"><a xlink:href="../../d6/daf/classRaffle.html#a4dcaa8f72c8423d4de25a9e87fa6f3e4" target="_top" xlink:title="load">
<polygon fill="white" stroke="black" points="103,-0.5 103,-19.5 140,-19.5 140,-0.5 103,-0.5"/>
<text text-anchor="middle" x="121.5" y="-7.5" font-family="Helvetica,sans-Serif" font-size="10.00">load</text>
</a>
</g>
</g>
<!-- Node61&#45;&gt;Node62 -->
<g id="edge1" class="edge"><title>Node61&#45;&gt;Node62</title>
<path fill="none" stroke="midnightblue" d="M77.1831,-10C86.2748,-10 95.3855,-10 102.889,-10"/>
<polygon fill="midnightblue" stroke="midnightblue" points="77.0129,-6.5001 67.0129,-10 77.0129,-13.5001 77.0129,-6.5001"/>
</g>
<!-- Node63 -->
<g id="node3" class="node"><title>Node63</title>
<g id="a_node3"><a xlink:href="../../d6/daf/classRaffle.html#a243272172685049c12f7df66416c3d5c" target="_top" xlink:title="__construct">
<polygon fill="white" stroke="black" points="176,-0.5 176,-19.5 243,-19.5 243,-0.5 176,-0.5"/>
<text text-anchor="middle" x="209.5" y="-7.5" font-family="Helvetica,sans-Serif" font-size="10.00">__construct</text>
</a>
</g>
</g>
<!-- Node62&#45;&gt;Node63 -->
<g id="edge2" class="edge"><title>Node62&#45;&gt;Node63</title>
<path fill="none" stroke="midnightblue" d="M150.376,-10C158.473,-10 167.39,-10 175.757,-10"/>
<polygon fill="midnightblue" stroke="midnightblue" points="150.319,-6.5001 140.319,-10 150.319,-13.5001 150.319,-6.5001"/>
</g>
</g>
</svg>
