<?xml version="1.0" encoding="UTF-8" standalone="no"?>
<!DOCTYPE svg PUBLIC "-//W3C//DTD SVG 1.1//EN"
 "http://www.w3.org/Graphics/SVG/1.1/DTD/svg11.dtd">
<!-- Generated by graphviz version 2.38.0 (20140413.2041)
 -->
<!-- Title: __construct Pages: 1 -->
<svg width="276pt" height="218pt"
 viewBox="0.00 0.00 276.00 218.00" xmlns="http://www.w3.org/2000/svg" xmlns:xlink="http://www.w3.org/1999/xlink">
<g id="graph0" class="graph" transform="scale(1 1) rotate(0) translate(4 214)">
<title>__construct</title>
<polygon fill="white" stroke="none" points="-4,4 -4,-214 272,-214 272,4 -4,4"/>
<!-- Node0 -->
<g id="node1" class="node"><title>Node0</title>
<polygon fill="#bfbfbf" stroke="black" points="0,-95.5 0,-114.5 67,-114.5 67,-95.5 0,-95.5"/>
<text text-anchor="middle" x="33.5" y="-102.5" font-family="Helvetica,sans-Serif" font-size="10.00">__construct</text>
</g>
<!-- Node1 -->
<g id="node2" class="node"><title>Node1</title>
<g id="a_node2"><a xlink:href="../../d6/daf/classRaffle.html#a4dcaa8f72c8423d4de25a9e87fa6f3e4" target="_top" xlink:title="load">
<polygon fill="white" stroke="black" points="103,-95.5 103,-114.5 140,-114.5 140,-95.5 103,-95.5"/>
<text text-anchor="middle" x="121.5" y="-102.5" font-family="Helvetica,sans-Serif" font-size="10.00">load</text>
</a>
</g>
</g>
<!-- Node0&#45;&gt;Node1 -->
<g id="edge1" class="edge"><title>Node0&#45;&gt;Node1</title>
<path fill="none" stroke="midnightblue" d="M67.0129,-105C75.4796,-105 84.524,-105 92.7211,-105"/>
<polygon fill="midnightblue" stroke="midnightblue" points="92.8891,-108.5 102.889,-105 92.8891,-101.5 92.8891,-108.5"/>
</g>
<!-- Node2 -->
<g id="node3" class="node"><title>Node2</title>
<g id="a_node3"><a xlink:href="../../d6/daf/classRaffle.html#a2fe666694997d047711d7653eca2f132" target="_top" xlink:title="setName">
<polygon fill="white" stroke="black" points="193.5,-190.5 193.5,-209.5 250.5,-209.5 250.5,-190.5 193.5,-190.5"/>
<text text-anchor="middle" x="222" y="-197.5" font-family="Helvetica,sans-Serif" font-size="10.00">setName</text>
</a>
</g>
</g>
<!-- Node1&#45;&gt;Node2 -->
<g id="edge2" class="edge"><title>Node1&#45;&gt;Node2</title>
<path fill="none" stroke="midnightblue" d="M127.072,-114.715C134.98,-130.579 152.634,-162.164 176,-181 178.575,-183.076 181.41,-184.96 184.365,-186.663"/>
<polygon fill="midnightblue" stroke="midnightblue" points="182.95,-189.869 193.456,-191.238 186.097,-183.616 182.95,-189.869"/>
</g>
<!-- Node3 -->
<g id="node4" class="node"><title>Node3</title>
<g id="a_node4"><a xlink:href="../../d6/daf/classRaffle.html#ad0468ee3d5131b4b9d2fa64f604a22c4" target="_top" xlink:title="setWinners">
<polygon fill="white" stroke="black" points="188.5,-152.5 188.5,-171.5 255.5,-171.5 255.5,-152.5 188.5,-152.5"/>
<text text-anchor="middle" x="222" y="-159.5" font-family="Helvetica,sans-Serif" font-size="10.00">setWinners</text>
</a>
</g>
</g>
<!-- Node1&#45;&gt;Node3 -->
<g id="edge3" class="edge"><title>Node1&#45;&gt;Node3</title>
<path fill="none" stroke="midnightblue" d="M134.326,-114.544C144.85,-122.753 160.875,-134.568 176,-143 179.305,-144.843 182.826,-146.62 186.386,-148.299"/>
<polygon fill="midnightblue" stroke="midnightblue" points="185.223,-151.613 195.782,-152.492 188.076,-145.221 185.223,-151.613"/>
</g>
<!-- Node4 -->
<g id="node5" class="node"><title>Node4</title>
<g id="a_node5"><a xlink:href="../../d6/daf/classRaffle.html#a4a6777a4a96add41f7762bafcf42ed30" target="_top" xlink:title="setOpenTime">
<polygon fill="white" stroke="black" points="183,-114.5 183,-133.5 261,-133.5 261,-114.5 183,-114.5"/>
<text text-anchor="middle" x="222" y="-121.5" font-family="Helvetica,sans-Serif" font-size="10.00">setOpenTime</text>
</a>
</g>
</g>
<!-- Node1&#45;&gt;Node4 -->
<g id="edge4" class="edge"><title>Node1&#45;&gt;Node4</title>
<path fill="none" stroke="midnightblue" d="M140.11,-108.397C149.269,-110.164 160.96,-112.419 172.588,-114.662"/>
<polygon fill="midnightblue" stroke="midnightblue" points="172.244,-118.16 182.726,-116.617 173.57,-111.286 172.244,-118.16"/>
</g>
<!-- Node5 -->
<g id="node6" class="node"><title>Node5</title>
<g id="a_node6"><a xlink:href="../../d6/daf/classRaffle.html#a2492e1ae538cc537cbb38546a11fecfc" target="_top" xlink:title="setCloseTime">
<polygon fill="white" stroke="black" points="181.5,-76.5 181.5,-95.5 262.5,-95.5 262.5,-76.5 181.5,-76.5"/>
<text text-anchor="middle" x="222" y="-83.5" font-family="Helvetica,sans-Serif" font-size="10.00">setCloseTime</text>
</a>
</g>
</g>
<!-- Node1&#45;&gt;Node5 -->
<g id="edge5" class="edge"><title>Node1&#45;&gt;Node5</title>
<path fill="none" stroke="midnightblue" d="M140.11,-101.603C149.012,-99.886 160.306,-97.7075 171.61,-95.527"/>
<polygon fill="midnightblue" stroke="midnightblue" points="172.33,-98.9527 181.486,-93.622 171.004,-92.0794 172.33,-98.9527"/>
</g>
<!-- Node6 -->
<g id="node7" class="node"><title>Node6</title>
<g id="a_node7"><a xlink:href="../../d6/daf/classRaffle.html#af351db4f57aa41622d6288701e934fee" target="_top" xlink:title="setDrawingTime">
<polygon fill="white" stroke="black" points="176,-38.5 176,-57.5 268,-57.5 268,-38.5 176,-38.5"/>
<text text-anchor="middle" x="222" y="-45.5" font-family="Helvetica,sans-Serif" font-size="10.00">setDrawingTime</text>
</a>
</g>
</g>
<!-- Node1&#45;&gt;Node6 -->
<g id="edge6" class="edge"><title>Node1&#45;&gt;Node6</title>
<path fill="none" stroke="midnightblue" d="M134.326,-95.4559C144.85,-87.2474 160.875,-75.4319 176,-67 179.305,-65.1573 182.826,-63.3798 186.386,-61.7006"/>
<polygon fill="midnightblue" stroke="midnightblue" points="188.076,-64.7793 195.782,-57.5083 185.223,-58.3868 188.076,-64.7793"/>
</g>
<!-- Node7 -->
<g id="node8" class="node"><title>Node7</title>
<g id="a_node8"><a xlink:href="../../d6/daf/classRaffle.html#a94042b70768a686decc42594ef36bbd6" target="_top" xlink:title="setState">
<polygon fill="white" stroke="black" points="195.5,-0.5 195.5,-19.5 248.5,-19.5 248.5,-0.5 195.5,-0.5"/>
<text text-anchor="middle" x="222" y="-7.5" font-family="Helvetica,sans-Serif" font-size="10.00">setState</text>
</a>
</g>
</g>
<!-- Node1&#45;&gt;Node7 -->
<g id="edge7" class="edge"><title>Node1&#45;&gt;Node7</title>
<path fill="none" stroke="midnightblue" d="M127.072,-95.2854C134.98,-79.4208 152.634,-47.836 176,-29 179.105,-26.4969 182.588,-24.2722 186.205,-22.3081"/>
<polygon fill="midnightblue" stroke="midnightblue" points="187.816,-25.4175 195.335,-17.9527 184.802,-19.0997 187.816,-25.4175"/>
</g>
</g>
</svg>
